<mxfile host="Electron" agent="Mozilla/5.0 (X11; Linux x86_64) AppleWebKit/537.36 (KHTML, like Gecko) draw.io/24.7.17 Chrome/128.0.6613.36 Electron/32.0.1 Safari/537.36" version="24.7.17">
  <diagram name="Page-1" id="PVzPb5Cub9S_jxkKNwRJ">
    <mxGraphModel dx="1434" dy="767" grid="1" gridSize="10" guides="1" tooltips="1" connect="1" arrows="1" fold="1" page="1" pageScale="1" pageWidth="850" pageHeight="1100" math="0" shadow="0">
      <root>
        <mxCell id="0" />
        <mxCell id="1" parent="0" />
        <mxCell id="7WWaJ6DqWUZIF_lU6RgC-3" style="edgeStyle=orthogonalEdgeStyle;rounded=0;orthogonalLoop=1;jettySize=auto;html=1;" edge="1" parent="1" source="7WWaJ6DqWUZIF_lU6RgC-1" target="7WWaJ6DqWUZIF_lU6RgC-2">
          <mxGeometry relative="1" as="geometry" />
        </mxCell>
        <mxCell id="7WWaJ6DqWUZIF_lU6RgC-1" value="Actor" style="shape=umlActor;verticalLabelPosition=bottom;verticalAlign=top;html=1;outlineConnect=0;" vertex="1" parent="1">
          <mxGeometry x="60" y="370" width="30" height="60" as="geometry" />
        </mxCell>
        <mxCell id="7WWaJ6DqWUZIF_lU6RgC-6" style="edgeStyle=orthogonalEdgeStyle;rounded=0;orthogonalLoop=1;jettySize=auto;html=1;entryX=0;entryY=0.5;entryDx=0;entryDy=0;" edge="1" parent="1" source="7WWaJ6DqWUZIF_lU6RgC-2" target="7WWaJ6DqWUZIF_lU6RgC-5">
          <mxGeometry relative="1" as="geometry" />
        </mxCell>
        <mxCell id="7WWaJ6DqWUZIF_lU6RgC-2" value="PUSH to GIT" style="sketch=0;outlineConnect=0;fontColor=#232F3E;gradientColor=none;fillColor=#232F3D;strokeColor=none;dashed=0;verticalLabelPosition=bottom;verticalAlign=top;align=center;html=1;fontSize=12;fontStyle=0;aspect=fixed;pointerEvents=1;shape=mxgraph.aws4.git_repository;" vertex="1" parent="1">
          <mxGeometry x="100" y="361" width="60" height="78" as="geometry" />
        </mxCell>
        <mxCell id="7WWaJ6DqWUZIF_lU6RgC-10" style="edgeStyle=orthogonalEdgeStyle;rounded=0;orthogonalLoop=1;jettySize=auto;html=1;entryX=0;entryY=0.5;entryDx=0;entryDy=0;" edge="1" parent="1" source="7WWaJ6DqWUZIF_lU6RgC-5" target="7WWaJ6DqWUZIF_lU6RgC-9">
          <mxGeometry relative="1" as="geometry" />
        </mxCell>
        <mxCell id="7WWaJ6DqWUZIF_lU6RgC-5" value="start pipeline on&lt;div&gt;&lt;br&gt;&lt;/div&gt;&lt;div&gt;&lt;span style=&quot;background-color: initial;&quot;&gt;&amp;nbsp;ubuntu server&lt;/span&gt;&lt;br&gt;&lt;/div&gt;" style="shape=step;perimeter=stepPerimeter;whiteSpace=wrap;html=1;fixedSize=1;" vertex="1" parent="1">
          <mxGeometry x="170" y="360" width="120" height="80" as="geometry" />
        </mxCell>
        <mxCell id="7WWaJ6DqWUZIF_lU6RgC-12" style="edgeStyle=orthogonalEdgeStyle;rounded=0;orthogonalLoop=1;jettySize=auto;html=1;entryX=0;entryY=0.5;entryDx=0;entryDy=0;" edge="1" parent="1" source="7WWaJ6DqWUZIF_lU6RgC-9" target="7WWaJ6DqWUZIF_lU6RgC-11">
          <mxGeometry relative="1" as="geometry" />
        </mxCell>
        <mxCell id="7WWaJ6DqWUZIF_lU6RgC-9" value="Set custom base&lt;div&gt;&lt;br&gt;&lt;/div&gt;&lt;div&gt;&lt;br&gt;&lt;/div&gt;&lt;div&gt;&amp;nbsp;image for build&lt;/div&gt;" style="shape=step;perimeter=stepPerimeter;whiteSpace=wrap;html=1;fixedSize=1;" vertex="1" parent="1">
          <mxGeometry x="300" y="360" width="120" height="80" as="geometry" />
        </mxCell>
        <mxCell id="7WWaJ6DqWUZIF_lU6RgC-14" style="edgeStyle=orthogonalEdgeStyle;rounded=0;orthogonalLoop=1;jettySize=auto;html=1;" edge="1" parent="1" source="7WWaJ6DqWUZIF_lU6RgC-11" target="7WWaJ6DqWUZIF_lU6RgC-13">
          <mxGeometry relative="1" as="geometry" />
        </mxCell>
        <mxCell id="7WWaJ6DqWUZIF_lU6RgC-11" value="Login to github&lt;div&gt;&lt;br&gt;&lt;/div&gt;&lt;div&gt;&lt;br&gt;container registry&lt;/div&gt;" style="shape=step;perimeter=stepPerimeter;whiteSpace=wrap;html=1;fixedSize=1;" vertex="1" parent="1">
          <mxGeometry x="430" y="360" width="120" height="80" as="geometry" />
        </mxCell>
        <mxCell id="7WWaJ6DqWUZIF_lU6RgC-16" style="edgeStyle=orthogonalEdgeStyle;rounded=0;orthogonalLoop=1;jettySize=auto;html=1;" edge="1" parent="1" source="7WWaJ6DqWUZIF_lU6RgC-13" target="7WWaJ6DqWUZIF_lU6RgC-15">
          <mxGeometry relative="1" as="geometry" />
        </mxCell>
        <mxCell id="7WWaJ6DqWUZIF_lU6RgC-13" value="Get application&lt;div&gt;&lt;br&gt;&lt;/div&gt;&lt;div&gt;&lt;br&gt;&lt;/div&gt;&lt;div&gt;&amp;nbsp;source code&lt;/div&gt;" style="shape=step;perimeter=stepPerimeter;whiteSpace=wrap;html=1;fixedSize=1;" vertex="1" parent="1">
          <mxGeometry x="560" y="360" width="120" height="80" as="geometry" />
        </mxCell>
        <mxCell id="7WWaJ6DqWUZIF_lU6RgC-18" style="edgeStyle=orthogonalEdgeStyle;rounded=0;orthogonalLoop=1;jettySize=auto;html=1;" edge="1" parent="1" source="7WWaJ6DqWUZIF_lU6RgC-15" target="7WWaJ6DqWUZIF_lU6RgC-17">
          <mxGeometry relative="1" as="geometry" />
        </mxCell>
        <mxCell id="7WWaJ6DqWUZIF_lU6RgC-15" value="Maven build&amp;nbsp;&lt;div&gt;&lt;br&gt;&lt;/div&gt;&lt;div&gt;&lt;span style=&quot;background-color: initial;&quot;&gt;java code&lt;/span&gt;&lt;br&gt;&lt;/div&gt;" style="shape=step;perimeter=stepPerimeter;whiteSpace=wrap;html=1;fixedSize=1;" vertex="1" parent="1">
          <mxGeometry x="700" y="360" width="120" height="80" as="geometry" />
        </mxCell>
        <mxCell id="7WWaJ6DqWUZIF_lU6RgC-20" style="edgeStyle=orthogonalEdgeStyle;rounded=0;orthogonalLoop=1;jettySize=auto;html=1;entryX=0;entryY=0.5;entryDx=0;entryDy=0;" edge="1" parent="1" source="7WWaJ6DqWUZIF_lU6RgC-17" target="7WWaJ6DqWUZIF_lU6RgC-19">
          <mxGeometry relative="1" as="geometry" />
        </mxCell>
        <mxCell id="7WWaJ6DqWUZIF_lU6RgC-17" value="Create docker&amp;nbsp;&lt;div&gt;&lt;span style=&quot;background-color: initial;&quot;&gt;image&amp;nbsp;&lt;/span&gt;&lt;span style=&quot;background-color: initial;&quot;&gt;with&amp;nbsp;&lt;/span&gt;&lt;/div&gt;&lt;div&gt;&lt;span style=&quot;background-color: initial;&quot;&gt;application&amp;nbsp;&lt;/span&gt;&lt;span style=&quot;background-color: initial;&quot;&gt;jar&lt;/span&gt;&lt;/div&gt;" style="shape=step;perimeter=stepPerimeter;whiteSpace=wrap;html=1;fixedSize=1;" vertex="1" parent="1">
          <mxGeometry x="840" y="360" width="120" height="80" as="geometry" />
        </mxCell>
        <mxCell id="7WWaJ6DqWUZIF_lU6RgC-19" value="Upload docker&amp;nbsp;&lt;div&gt;image with application to&amp;nbsp;&lt;div&gt;github registry&lt;/div&gt;&lt;/div&gt;" style="shape=step;perimeter=stepPerimeter;whiteSpace=wrap;html=1;fixedSize=1;" vertex="1" parent="1">
          <mxGeometry x="980" y="360" width="120" height="80" as="geometry" />
        </mxCell>
      </root>
    </mxGraphModel>
  </diagram>
</mxfile>
